<svg width="31" height="31" viewBox="0 0 31 31" fill="none" xmlns="http://www.w3.org/2000/svg">
<path d="M16.2614 20.925C10.4361 20.925 7.11342 16.8522 6.97498 10.075H9.89296C9.98881 15.0493 12.14 17.1563 13.844 17.5907V10.075H16.5916V14.3651C18.2742 14.1804 20.042 12.2255 20.6384 10.075H23.386C23.1613 11.1903 22.7133 12.2463 22.0701 13.177C21.4269 14.1076 20.6024 14.8929 19.648 15.4837C20.7133 16.0236 21.6542 16.7877 22.4087 17.7256C23.1632 18.6636 23.7141 19.754 24.025 20.925H21.0005C20.7214 19.9079 20.1542 18.9974 19.3699 18.3077C18.5855 17.618 17.6191 17.1797 16.5916 17.0477V20.925H16.2614V20.925Z" fill="white"/>
</svg>
